<svg width="1206" height="233" viewBox="0 0 1206 233" fill="none" xmlns="http://www.w3.org/2000/svg">
<path fill-rule="evenodd" clip-rule="evenodd" d="M0 137.817L18.09 129.885C36.18 121.953 72.36 106.089 108.54 106.089C144.72 106.089 183.915 121.953 220.095 117.987C256.275 114.021 292.455 90.2255 328.635 74.3617C364.815 58.4979 400.995 50.566 437.175 50.566C476.37 50.566 512.55 58.4979 548.73 70.3957C584.91 82.2936 621.09 98.1574 657.27 86.2596C693.45 74.3617 729.63 34.7021 768.825 14.8723C805.005 -4.95745 841.185 -4.95745 877.365 14.8723C913.545 34.7021 949.725 74.3617 985.905 94.1915C1022.09 114.021 1061.28 114.021 1097.46 102.123C1133.64 90.2255 1169.82 66.4298 1187.91 54.5319L1206 42.634V233H1187.91C1169.82 233 1133.64 233 1097.46 233C1061.28 233 1022.09 233 985.905 233C949.725 233 913.545 233 877.365 233C841.185 233 805.005 233 768.825 233C729.63 233 693.45 233 657.27 233C621.09 233 584.91 233 548.73 233C512.55 233 476.37 233 437.175 233C400.995 233 364.815 233 328.635 233C292.455 233 256.275 233 220.095 233C183.915 233 144.72 233 108.54 233C72.36 233 36.18 233 18.09 233H0V137.817Z" fill="#0099FF" fill-opacity="0.1"/>
<path fill-rule="evenodd" clip-rule="evenodd" d="M0 110.012L21.9273 131.217C43.8545 150.301 87.7091 192.711 135.949 188.47C179.804 186.349 223.658 139.699 267.513 133.337C311.367 126.976 355.222 163.024 403.462 163.024C447.316 163.024 491.171 126.976 535.025 124.855C578.88 120.614 627.12 150.301 670.975 165.145C714.829 179.988 758.684 179.988 802.538 163.024C850.778 143.94 894.633 110.012 938.487 88.8072C982.342 69.7229 1026.2 63.3614 1070.05 59.1205C1118.29 57 1162.15 57 1184.07 57H1206V233H1184.07C1162.15 233 1118.29 233 1070.05 233C1026.2 233 982.342 233 938.487 233C894.633 233 850.778 233 802.538 233C758.684 233 714.829 233 670.975 233C627.12 233 578.88 233 535.025 233C491.171 233 447.316 233 403.462 233C355.222 233 311.367 233 267.513 233C223.658 233 179.804 233 135.949 233C87.7091 233 43.8545 233 21.9273 233H0L0 110.012Z" fill="#0099FF" fill-opacity="0.1"/>
</svg>