<svg width="60" height="60" viewBox="0 0 60 60" fill="none" xmlns="http://www.w3.org/2000/svg">
<g clip-path="url(#clip0_1_42)">
<path d="M30.0012 -1.90735e-06C16.809 -1.90735e-06 6 10.0338 6 22.278C6 27.0228 7.6284 31.4304 10.3842 35.0556L27.072 58.08C29.4096 60.9222 30.9624 60.3834 32.9058 57.9312L51.3144 32.601C51.6864 31.9746 51.9768 31.3086 52.2312 30.627C53.367 28.0446 53.9994 25.227 53.9994 22.278C54 10.0338 43.1934 -1.90735e-06 30.0012 -1.90735e-06ZM30 7.788C38.6082 7.788 45.6 14.7804 45.6 23.388C45.6 31.9962 38.6082 38.988 30 38.988C21.3918 38.988 14.4 31.9962 14.4 23.388C14.4 14.7804 21.3918 7.788 30 7.788ZM30 9.1314C29.6328 9.1314 29.2698 9.1494 28.9104 9.177C29.5212 9.186 30.1296 9.2172 30.7278 9.333C30.7476 9.984 30.8928 11.2008 29.6202 11.157C28.5732 11.2164 27.5796 13.593 26.9904 11.877C27.0594 10.9968 28.5744 9.2232 26.7444 9.8682C26.3544 10.431 26.4576 11.4762 25.7358 11.3532C25.479 12.2796 24.7554 11.7264 24.612 11.325C24.2646 11.5284 24.87 12.0492 24.4818 12.327C25.605 11.5716 24.5742 13.2726 25.2162 13.71C24.603 14.2986 25.6992 15.804 24.4056 15.423C23.2134 15.2328 25.3332 13.9182 23.8734 14.5452C22.9554 14.7516 23.004 15.2754 23.6904 15.4134C23.0742 15.9918 22.29 16.023 21.9246 15.7626C20.9606 16.374 20.0856 17.1154 19.3242 17.9658C18.1926 18.0198 18.4482 20.3112 17.904 20.0778C17.844 19.3752 18.0846 18.2418 17.3628 18.4056C16.5888 18.1506 16.0968 20.3634 16.4154 20.9262C17.3922 19.7406 16.4814 21.7812 16.7178 22.179C17.289 23.0478 16.3416 24.5988 17.6928 24.8976C18.1716 23.9706 18.618 24.813 18.7242 24.7008C19.1646 24.6228 19.4766 25.7088 20.2662 25.5624C21.1812 25.4664 20.73 27.2652 21.9786 27.4644C23.5026 27.9054 23.3442 29.949 25.023 30.2028C26.0154 30.7842 28.7958 31.038 27.9246 32.6346C26.6244 33.1704 27.4578 35.5386 25.5432 35.0754C24.9402 35.2494 24.8322 36.051 24.1194 36.1626H23.6934C25.6532 37.1365 27.8116 37.6439 30 37.6452C33.336 37.6452 36.396 36.4938 38.823 34.5786L38.8968 34.3134L38.8668 34.3182C40.0284 33.4308 39.8508 31.7322 40.7472 30.6366C41.0934 29.4414 39.87 28.5876 40.5714 27.483C39.9624 27.5562 38.8854 26.8296 38.2116 27.8202C37.4418 27.8304 36.6942 28.7136 35.979 28.2522C35.028 27.6882 33.9372 27.0288 33.6678 25.8762C33.7836 24.9774 33.5076 23.8254 33.5928 22.992C34.0182 21.5502 35.1648 20.685 35.4012 19.26C35.499 19.1736 36.3288 18.525 36.363 18.498C37.374 18.2364 38.7504 16.614 39.354 18.24C39.5598 18.3894 40.9368 19.083 40.8126 18.5358C40.8468 17.6802 43.1268 18.1446 41.9556 17.0262C41.8344 16.9542 41.3718 16.8204 41.0658 16.9056C40.9398 16.9356 40.3986 17.5338 39.9366 16.7286C39.225 16.0662 39.8988 18.5058 38.9436 17.2452C39.9258 16.9188 37.6968 15.7764 38.2218 16.44C38.9922 17.7492 37.5552 16.89 37.815 15.9876C36.573 15.8352 37.1766 18.1686 36.0108 18.5274C36.0186 18.5286 36.0264 18.5274 36.0342 18.5286L35.8314 18.5544L35.5182 18.5838C35.2308 18.2904 34.392 18.2538 34.6404 17.406C34.1124 16.4898 34.6368 16.1418 35.5722 16.2282C36.516 15.624 33.6078 14.8992 35.475 14.5842C34.6578 14.6364 34.3152 14.6682 34.209 13.6596C34.3398 14.91 32.724 14.1294 33.591 13.3854C33.921 13.1634 32.8326 12.711 33.7476 12.5568C34.3596 12.5244 35.5668 15.0048 35.7876 13.5168C36.204 13.383 35.4 12.5868 35.592 12.5448C34.5084 12.8904 34.1922 10.9872 34.1838 10.275C34.6458 10.293 35.1078 10.239 35.3088 10.1532C33.6207 9.47651 31.8186 9.12965 30 9.1314ZM31.971 9.3294C32.241 9.3144 33.153 9.6354 32.5092 9.7146L32.208 9.612C31.86 9.4122 31.848 9.336 31.971 9.3294ZM25.0896 10.6854C25.0116 10.6944 24.867 10.7634 24.6372 10.9278C24.3504 11.0508 23.7762 11.8116 24.45 11.25C24.9552 11.166 25.3242 10.6566 25.0896 10.6854ZM35.4198 11.0568C35.2794 11.0676 35.7378 11.436 35.5206 11.0766C35.4885 11.0639 35.4543 11.0572 35.4198 11.0568ZM23.529 11.2254C23.409 11.217 23.2338 11.2716 22.9872 11.4162C22.182 11.4846 22.1406 13.2558 22.1634 13.1496C22.4022 12.9906 22.6122 12.5022 22.9206 12.531C23.4966 12.471 24.0468 11.2632 23.529 11.2254ZM30.9858 11.2584C31.5666 11.2344 32.4768 11.6982 31.215 11.8548C31.011 11.8536 30.7872 11.817 30.633 11.6688C30.525 11.3808 30.7212 11.2692 30.9858 11.2584ZM35.4528 11.49C35.2104 11.4684 36.3744 12.2874 35.883 11.667C35.6394 11.5446 35.5086 11.4954 35.4528 11.49ZM33.0234 11.9436C33.093 11.9136 33.2214 12.3054 32.9904 12.0456C32.9952 11.9802 33.0072 11.9508 33.0234 11.9436ZM33.9162 12.1584C33.9726 12.1734 34.1826 12.6072 33.9342 12.3246C33.8958 12.195 33.8982 12.153 33.9162 12.1584ZM36.4452 12.1626C36.3234 12.1632 36.333 12.2898 36.7008 12.615C36.8082 13.107 36.5538 13.3446 37.1028 12.9012C37.2174 12.5154 36.6486 12.162 36.4452 12.1632V12.1626ZM20.436 13.956C20.262 13.9356 20.4156 14.7288 20.6118 14.127C20.5332 14.0082 20.4756 13.9608 20.436 13.956ZM23.178 14.3064C23.0688 14.3046 23.1714 14.5632 23.3634 14.4186C23.2752 14.3364 23.2146 14.3064 23.1774 14.3064H23.178ZM39.9852 14.412C39.759 14.4378 40.4832 15.9528 40.6566 15.2628C41.5746 15.1212 40.5156 14.34 40.311 14.6766C40.1388 14.4786 40.0368 14.4054 39.9852 14.412ZM20.4582 14.6892C20.3232 14.7192 20.2422 15.543 20.5182 14.7312C20.4972 14.6964 20.4774 14.685 20.4582 14.6892ZM38.3538 15.5232C38.2542 15.5064 38.3292 15.6132 38.7696 15.942C38.9076 15.9012 39.5886 16.5348 39.4296 16.179C39.1698 15.921 38.5194 15.5502 38.3538 15.5226V15.5232ZM20.1168 15.5292C19.971 15.5004 19.6866 15.9978 20.1852 15.6516C20.1774 15.5718 20.1504 15.5364 20.1168 15.5298V15.5292ZM40.3152 16.1904C40.239 16.2234 40.593 16.7226 40.566 16.362C40.4154 16.2192 40.341 16.1796 40.3152 16.1904ZM37.2816 16.8738C37.4652 16.845 37.3554 17.691 36.9978 17.2734C37.1262 16.9902 37.2198 16.8834 37.2816 16.8738ZM41.0436 17.1714C41.2434 17.1456 41.4156 17.7114 40.8606 17.4474C40.9074 17.2536 40.9764 17.1804 41.043 17.1714H41.0436ZM30.2502 17.9916C30.4662 18.0108 30.426 18.3606 29.955 18.1176C30.0774 18.0156 30.1782 17.9856 30.2502 17.9916ZM30.9018 18.2142C30.99 18.2478 30.8154 18.5622 30.7128 18.306C30.8124 18.222 30.8724 18.2034 30.9018 18.2142ZM33.2466 19.713C33.3696 19.6836 33.3144 20.1246 33.1326 19.8246C33.1806 19.7526 33.2184 19.7202 33.2466 19.713ZM18.4284 19.8408C18.5094 19.8402 18.6882 20.4432 18.4002 20.1C18.384 19.908 18.4014 19.8414 18.4284 19.8408ZM18.2676 20.3268C18.3492 20.3412 18.3084 21.1146 18.1458 20.6412C18.1998 20.403 18.2406 20.3232 18.2676 20.3274V20.3268ZM17.4414 20.577C17.5236 20.5854 17.6394 20.616 17.7954 20.673C18.0876 21.4926 18.8832 21.7578 18.6582 22.119C19.2318 22.3482 20.0682 23.4354 18.7152 22.9488C17.8176 22.587 19.0272 22.2636 17.9652 21.9768C17.9238 21.531 16.8678 20.5176 17.4414 20.577ZM34.191 20.8032C34.3254 20.8032 34.4328 21.3462 34.0368 21.2508C34.065 20.916 34.1304 20.8032 34.191 20.8032ZM18.5352 21.0468C18.5868 21.0138 18.7188 21.1932 18.6552 21.417L18.5892 21.3726C18.5028 21.1626 18.504 21.0666 18.5352 21.0468ZM33.1824 21.069C33.564 21.0474 34.2426 21.3588 33.366 21.3876H33.0708L33.0204 21.3636C32.8968 21.1578 33.0084 21.0792 33.1824 21.0696V21.069ZM15.891 21.3432C15.7933 22.0204 15.7439 22.7038 15.7434 23.388C15.7434 27.798 17.7414 31.734 20.8794 34.3476L20.7714 34.1142C20.6274 33.759 20.4192 33.432 20.2368 33.096C19.4934 31.7772 18.2496 30.8076 17.7144 29.3568C16.6896 28.0464 17.5236 26.6382 17.3184 25.2714C17.2584 24.5478 17.0796 25.7034 16.8384 24.7854C16.3404 23.7648 16.2864 22.2954 15.891 21.3432ZM17.736 22.146C17.907 22.182 18.4014 22.7316 17.8332 22.5342C17.6472 22.2198 17.658 22.1298 17.736 22.146ZM19.6848 22.9782C19.8978 22.9512 20.1828 23.5242 19.5324 23.2584C19.5492 23.0628 19.6134 22.9872 19.6848 22.9782ZM20.7216 24.0552C20.808 24.0888 20.8854 25.3914 20.655 24.7758L20.6418 24.5616C20.6616 24.1728 20.6928 24.0438 20.7216 24.0552ZM31.0824 24.9222C31.2444 24.9402 31.758 25.2744 31.2126 25.1658C31.0086 24.972 31.0086 24.9138 31.0824 24.9222ZM31.8756 25.104C32.0226 25.1016 31.9686 25.5486 31.7418 25.1928C31.7976 25.1292 31.842 25.1046 31.8756 25.104ZM31.7442 25.4928C31.9698 25.4568 31.7922 25.9044 31.5204 25.6116C31.6194 25.5366 31.6926 25.5012 31.7442 25.4928ZM31.3626 25.5492C31.4454 25.5582 31.3992 25.9596 31.2366 25.71C31.2942 25.5864 31.3344 25.5462 31.3626 25.5492ZM39.9942 28.3008C40.0776 28.3098 40.0302 28.7112 39.8682 28.4616C39.9252 28.338 39.9666 28.2978 39.9942 28.3008Z" fill="#256D85"/>
</g>
<defs>
<clipPath id="clip0_1_42">
<rect width="60" height="60" fill="white"/>
</clipPath>
</defs>
</svg>
